<mxfile host="app.diagrams.net" modified="2023-10-25T02:51:46.239Z" agent="Mozilla/5.0 (X11; Linux x86_64) AppleWebKit/537.36 (KHTML, like Gecko) Chrome/118.0.0.0 Safari/537.36" etag="_B2ZVZQV_MH6o1uxsZnH" version="22.0.7" type="github">
  <diagram name="Página-1" id="9EZUr4mvAmmP4AGxjmPX">
    <mxGraphModel dx="3528" dy="7995" grid="0" gridSize="10" guides="1" tooltips="1" connect="1" arrows="1" fold="1" page="0" pageScale="1" pageWidth="827" pageHeight="1169" math="0" shadow="0">
      <root>
        <mxCell id="0" />
        <mxCell id="1" parent="0" />
        <mxCell id="9JzCqHqpsnYEKl0GW3Vo-19" value="" style="whiteSpace=wrap;html=1;aspect=fixed;" vertex="1" parent="1">
          <mxGeometry x="-1649" y="-6905" width="1247" height="1247" as="geometry" />
        </mxCell>
        <mxCell id="ROAgueBNG2c1GGxxto9t-6" style="edgeStyle=none;curved=1;rounded=0;orthogonalLoop=1;jettySize=auto;html=1;fontSize=12;startSize=8;endSize=8;" parent="1" source="ROAgueBNG2c1GGxxto9t-4" edge="1">
          <mxGeometry relative="1" as="geometry">
            <mxPoint x="-1074" y="-6774.35283897663" as="targetPoint" />
          </mxGeometry>
        </mxCell>
        <mxCell id="ROAgueBNG2c1GGxxto9t-4" value="&lt;font style=&quot;vertical-align: inherit; font-size: 21px;&quot;&gt;&lt;font style=&quot;vertical-align: inherit; font-size: 21px;&quot;&gt;START&lt;/font&gt;&lt;/font&gt;" style="ellipse;whiteSpace=wrap;html=1;fontSize=21;strokeWidth=2;shadow=1;fontStyle=3;align=center;verticalAlign=middle;" parent="1" vertex="1">
          <mxGeometry x="-1183.25" y="-6872" width="216" height="63" as="geometry" />
        </mxCell>
        <mxCell id="a-iccuPGO_Mf37Q758sd-16" value="" style="edgeStyle=orthogonalEdgeStyle;rounded=0;orthogonalLoop=1;jettySize=auto;html=1;strokeWidth=2;" parent="1" source="ROAgueBNG2c1GGxxto9t-5" target="ROAgueBNG2c1GGxxto9t-7" edge="1">
          <mxGeometry relative="1" as="geometry" />
        </mxCell>
        <mxCell id="ROAgueBNG2c1GGxxto9t-5" value="&lt;font style=&quot;vertical-align: inherit;&quot;&gt;&lt;font style=&quot;vertical-align: inherit;&quot;&gt;&lt;font style=&quot;vertical-align: inherit;&quot;&gt;&lt;font style=&quot;vertical-align: inherit;&quot;&gt;DECLARACIÓN DE LIBRERÍA&amp;nbsp;&lt;/font&gt;&lt;/font&gt;&lt;/font&gt;&lt;/font&gt;" style="whiteSpace=wrap;html=1;fontSize=16;shadow=1;rounded=1;strokeWidth=2;fontStyle=1" parent="1" vertex="1">
          <mxGeometry x="-1203.25" y="-6769" width="260" height="60" as="geometry" />
        </mxCell>
        <mxCell id="a-iccuPGO_Mf37Q758sd-10" value="" style="edgeStyle=orthogonalEdgeStyle;rounded=0;orthogonalLoop=1;jettySize=auto;html=1;strokeWidth=2;" parent="1" source="ROAgueBNG2c1GGxxto9t-7" target="a-iccuPGO_Mf37Q758sd-9" edge="1">
          <mxGeometry relative="1" as="geometry" />
        </mxCell>
        <mxCell id="ROAgueBNG2c1GGxxto9t-7" value="&lt;font style=&quot;vertical-align: inherit;&quot;&gt;&lt;font style=&quot;vertical-align: inherit;&quot;&gt;CONFIGURACIÓN DE E/S PINES&lt;/font&gt;&lt;/font&gt;" style="whiteSpace=wrap;html=1;fontSize=16;shadow=1;glass=0;rounded=1;strokeWidth=2;fontStyle=1" parent="1" vertex="1">
          <mxGeometry x="-1214.5" y="-6656" width="282.5" height="60" as="geometry" />
        </mxCell>
        <mxCell id="ROAgueBNG2c1GGxxto9t-15" value="" style="edgeStyle=none;curved=1;rounded=0;orthogonalLoop=1;jettySize=auto;html=1;fontSize=12;startSize=8;endSize=8;" parent="1" source="ROAgueBNG2c1GGxxto9t-13" edge="1">
          <mxGeometry relative="1" as="geometry">
            <mxPoint x="-1045.75" y="-6369" as="targetPoint" />
          </mxGeometry>
        </mxCell>
        <mxCell id="9JzCqHqpsnYEKl0GW3Vo-17" style="edgeStyle=orthogonalEdgeStyle;rounded=0;orthogonalLoop=1;jettySize=auto;html=1;entryX=0;entryY=0.5;entryDx=0;entryDy=0;strokeWidth=2;" edge="1" parent="1" source="ROAgueBNG2c1GGxxto9t-13" target="ROAgueBNG2c1GGxxto9t-18">
          <mxGeometry relative="1" as="geometry" />
        </mxCell>
        <mxCell id="ROAgueBNG2c1GGxxto9t-13" value="&lt;font style=&quot;vertical-align: inherit;&quot;&gt;&lt;font style=&quot;vertical-align: inherit;&quot;&gt;&lt;font style=&quot;vertical-align: inherit;&quot;&gt;&lt;font style=&quot;vertical-align: inherit;&quot;&gt;&lt;font style=&quot;vertical-align: inherit; font-size: 15px;&quot;&gt;&lt;font style=&quot;vertical-align: inherit; font-size: 14px;&quot;&gt;&lt;span&gt;SI HAY &lt;br&gt;&amp;nbsp;CUENTAS&lt;br&gt;&amp;nbsp;REGISTRADA&amp;nbsp;&lt;/span&gt;&lt;/font&gt;&lt;/font&gt;&lt;/font&gt;&lt;/font&gt;&lt;/font&gt;&lt;/font&gt;" style="rhombus;whiteSpace=wrap;html=1;fontSize=16;rounded=1;shadow=1;strokeWidth=2;fontStyle=1" parent="1" vertex="1">
          <mxGeometry x="-1183.25" y="-6399" width="220" height="136" as="geometry" />
        </mxCell>
        <mxCell id="9JzCqHqpsnYEKl0GW3Vo-18" style="edgeStyle=orthogonalEdgeStyle;rounded=0;orthogonalLoop=1;jettySize=auto;html=1;strokeWidth=2;" edge="1" parent="1" source="ROAgueBNG2c1GGxxto9t-18">
          <mxGeometry relative="1" as="geometry">
            <mxPoint x="-1070" y="-6420" as="targetPoint" />
            <Array as="points">
              <mxPoint x="-640" y="-6420" />
            </Array>
          </mxGeometry>
        </mxCell>
        <mxCell id="ROAgueBNG2c1GGxxto9t-18" value="&lt;font style=&quot;vertical-align: inherit;&quot;&gt;&lt;font style=&quot;vertical-align: inherit;&quot;&gt;MENU PRINCIPAL&amp;nbsp;&lt;/font&gt;&lt;/font&gt;" style="whiteSpace=wrap;html=1;fontSize=16;strokeWidth=2;shadow=1;rounded=1;fontStyle=1" parent="1" vertex="1">
          <mxGeometry x="-870" y="-6361" width="189" height="60" as="geometry" />
        </mxCell>
        <mxCell id="a-iccuPGO_Mf37Q758sd-1" value="&lt;font style=&quot;font-size: 13px;&quot;&gt;SI&lt;/font&gt;" style="text;html=1;strokeColor=none;fillColor=none;align=center;verticalAlign=middle;whiteSpace=wrap;rounded=0;fontSize=19;strokeWidth=0;fontStyle=1" parent="1" vertex="1">
          <mxGeometry x="-980" y="-6369" width="60" height="30" as="geometry" />
        </mxCell>
        <mxCell id="a-iccuPGO_Mf37Q758sd-2" value="&lt;font style=&quot;font-size: 11px;&quot;&gt;NO&lt;/font&gt;" style="text;html=1;strokeColor=none;fillColor=none;align=center;verticalAlign=middle;whiteSpace=wrap;rounded=0;fontSize=19;glass=0;shadow=0;fontStyle=1" parent="1" vertex="1">
          <mxGeometry x="-1117" y="-6267" width="60" height="30" as="geometry" />
        </mxCell>
        <mxCell id="9JzCqHqpsnYEKl0GW3Vo-16" style="edgeStyle=orthogonalEdgeStyle;rounded=0;orthogonalLoop=1;jettySize=auto;html=1;strokeWidth=2;" edge="1" parent="1" source="a-iccuPGO_Mf37Q758sd-6">
          <mxGeometry relative="1" as="geometry">
            <mxPoint x="-1080" y="-6420" as="targetPoint" />
            <Array as="points">
              <mxPoint x="-710" y="-5870" />
              <mxPoint x="-1310" y="-6430" />
            </Array>
          </mxGeometry>
        </mxCell>
        <mxCell id="a-iccuPGO_Mf37Q758sd-6" value="&lt;font style=&quot;font-size: 16px;&quot;&gt;MENU &lt;br&gt;CREAR UNA CUENTA&amp;nbsp; NUEVA&lt;/font&gt;" style="rounded=1;whiteSpace=wrap;html=1;strokeWidth=2;shadow=1;fontStyle=1" parent="1" vertex="1">
          <mxGeometry x="-840" y="-6144" width="251.5" height="68" as="geometry" />
        </mxCell>
        <mxCell id="a-iccuPGO_Mf37Q758sd-11" style="edgeStyle=orthogonalEdgeStyle;rounded=0;orthogonalLoop=1;jettySize=auto;html=1;strokeWidth=2;" parent="1" source="a-iccuPGO_Mf37Q758sd-9" target="ROAgueBNG2c1GGxxto9t-13" edge="1">
          <mxGeometry relative="1" as="geometry" />
        </mxCell>
        <mxCell id="a-iccuPGO_Mf37Q758sd-9" value="&lt;b&gt;CONFIGURACION&lt;br&gt;&amp;nbsp;Y &lt;br&gt;CONEXION&amp;nbsp; DE WIFI&lt;/b&gt;" style="whiteSpace=wrap;html=1;fontSize=16;rounded=1;shadow=1;strokeWidth=2;" parent="1" vertex="1">
          <mxGeometry x="-1183.25" y="-6550" width="220" height="71" as="geometry" />
        </mxCell>
        <mxCell id="9JzCqHqpsnYEKl0GW3Vo-10" style="edgeStyle=orthogonalEdgeStyle;rounded=0;orthogonalLoop=1;jettySize=auto;html=1;strokeWidth=2;" edge="1" parent="1">
          <mxGeometry relative="1" as="geometry">
            <mxPoint x="-1080" y="-6190" as="targetPoint" />
            <mxPoint x="-1073.9999999999998" y="-6040" as="sourcePoint" />
            <Array as="points">
              <mxPoint x="-1074" y="-5970" />
              <mxPoint x="-1230" y="-5970" />
              <mxPoint x="-1230" y="-6190" />
            </Array>
          </mxGeometry>
        </mxCell>
        <mxCell id="9JzCqHqpsnYEKl0GW3Vo-15" style="edgeStyle=orthogonalEdgeStyle;rounded=0;orthogonalLoop=1;jettySize=auto;html=1;entryX=0;entryY=0.5;entryDx=0;entryDy=0;strokeWidth=2;" edge="1" parent="1" target="a-iccuPGO_Mf37Q758sd-6">
          <mxGeometry relative="1" as="geometry">
            <mxPoint x="-961.9999999999995" y="-6110" as="sourcePoint" />
          </mxGeometry>
        </mxCell>
        <mxCell id="9JzCqHqpsnYEKl0GW3Vo-12" style="edgeStyle=orthogonalEdgeStyle;rounded=0;orthogonalLoop=1;jettySize=auto;html=1;entryX=0.5;entryY=0.015;entryDx=0;entryDy=0;entryPerimeter=0;strokeWidth=2;" edge="1" parent="1" source="ROAgueBNG2c1GGxxto9t-13" target="9JzCqHqpsnYEKl0GW3Vo-21">
          <mxGeometry relative="1" as="geometry">
            <mxPoint x="-1073.9999999999998" y="-6180" as="targetPoint" />
          </mxGeometry>
        </mxCell>
        <mxCell id="9JzCqHqpsnYEKl0GW3Vo-13" value="&lt;font style=&quot;font-size: 12px;&quot;&gt;SI ES&lt;font style=&quot;font-size: 12px;&quot;&gt; &lt;/font&gt;CORRECTA&lt;/font&gt;" style="text;html=1;strokeColor=none;fillColor=none;align=center;verticalAlign=middle;whiteSpace=wrap;rounded=0;fontSize=19;fontStyle=1" vertex="1" parent="1">
          <mxGeometry x="-1005" y="-6144" width="203.5" height="30" as="geometry" />
        </mxCell>
        <mxCell id="9JzCqHqpsnYEKl0GW3Vo-14" value="&lt;font style=&quot;font-size: 12px;&quot;&gt;SI NO ES&lt;font style=&quot;font-size: 12px;&quot;&gt; &lt;/font&gt;CORRECTA&lt;br&gt;&lt;/font&gt;" style="text;html=1;strokeColor=none;fillColor=none;align=center;verticalAlign=middle;whiteSpace=wrap;rounded=0;fontSize=19;fontStyle=1" vertex="1" parent="1">
          <mxGeometry x="-1109" y="-6025" width="203.5" height="30" as="geometry" />
        </mxCell>
        <mxCell id="9JzCqHqpsnYEKl0GW3Vo-21" value="&lt;font style=&quot;font-size: 12px;&quot;&gt;&lt;span&gt;VERIFICA&amp;nbsp; TARJETA&lt;br style=&quot;border-color: var(--border-color);&quot;&gt;RFID O CONTRASEÑA PARA&lt;br style=&quot;border-color: var(--border-color);&quot;&gt;CREAR CUENTA&lt;/span&gt;&lt;/font&gt;" style="rhombus;whiteSpace=wrap;html=1;fontSize=16;rounded=1;shadow=1;strokeWidth=2;fontStyle=1" vertex="1" parent="1">
          <mxGeometry x="-1184" y="-6175" width="220" height="136" as="geometry" />
        </mxCell>
      </root>
    </mxGraphModel>
  </diagram>
</mxfile>
